<?xml version="1.0" encoding="UTF-8" standalone="no"?>
<!-- Created with Inkscape (http://www.inkscape.org/) -->

<svg
   xmlns:dc="http://purl.org/dc/elements/1.1/"
   xmlns:cc="http://creativecommons.org/ns#"
   xmlns:rdf="http://www.w3.org/1999/02/22-rdf-syntax-ns#"
   xmlns:svg="http://www.w3.org/2000/svg"
   xmlns="http://www.w3.org/2000/svg"
   xmlns:sodipodi="http://sodipodi.sourceforge.net/DTD/sodipodi-0.dtd"
   xmlns:inkscape="http://www.inkscape.org/namespaces/inkscape"
   width="210mm"
   height="297mm"
   viewBox="0 0 744.09448819 1052.3622047"
   id="svg4898"
   version="1.1"
   inkscape:version="0.91 r13725"
   sodipodi:docname="cheap engine.svg">
  <defs
     id="defs4900" />
  <sodipodi:namedview
     id="base"
     pagecolor="#ffffff"
     bordercolor="#666666"
     borderopacity="1.0"
     inkscape:pageopacity="0.0"
     inkscape:pageshadow="2"
     inkscape:zoom="0.98994949"
     inkscape:cx="245.17663"
     inkscape:cy="651.28506"
     inkscape:document-units="px"
     inkscape:current-layer="layer1"
     showgrid="false"
     inkscape:window-width="1920"
     inkscape:window-height="1018"
     inkscape:window-x="-8"
     inkscape:window-y="-8"
     inkscape:window-maximized="1" />
  <metadata
     id="metadata4903">
    <rdf:RDF>
      <cc:Work
         rdf:about="">
        <dc:format>image/svg+xml</dc:format>
        <dc:type
           rdf:resource="http://purl.org/dc/dcmitype/StillImage" />
        <dc:title></dc:title>
      </cc:Work>
    </rdf:RDF>
  </metadata>
  <g
     inkscape:label="Layer 1"
     inkscape:groupmode="layer"
     id="layer1">
    <ellipse
       style="fill:#93ac9d;fill-opacity:1;stroke:#000000;stroke-width:5;stroke-miterlimit:4;stroke-dasharray:none;stroke-opacity:1"
       id="path4206"
       cx="-562.14288"
       cy="459.50443"
       rx="44.285713"
       ry="125"
       transform="scale(-1,1)" />
    <ellipse
       style="fill:#93ac9d;fill-opacity:1;stroke:#000000;stroke-width:5;stroke-miterlimit:4;stroke-dasharray:none;stroke-opacity:1"
       id="path4206-8"
       cx="-183.57143"
       cy="454.50443"
       rx="44.285713"
       ry="125"
       transform="scale(-1,1)" />
    <path
       style="fill:#93ac9d;fill-rule:evenodd;stroke:#000000;stroke-width:5;stroke-linecap:butt;stroke-linejoin:miter;stroke-miterlimit:4;stroke-dasharray:none;stroke-opacity:1"
       d="M 563.57142,334.50445 182.14286,330.21873"
       id="path4808"
       inkscape:connector-curvature="0" />
    <path
       style="fill:#93ac9d;fill-rule:evenodd;stroke:#000000;stroke-width:5;stroke-linecap:butt;stroke-linejoin:miter;stroke-miterlimit:4;stroke-dasharray:none;stroke-opacity:1"
       d="M 558.57142,582.36159 177.14286,578.07587"
       id="path4808-5"
       inkscape:connector-curvature="0" />
    <path
       style="fill:#93ac9d;fill-rule:evenodd;stroke:#000000;stroke-width:5;stroke-linecap:butt;stroke-linejoin:miter;stroke-miterlimit:4;stroke-dasharray:none;stroke-opacity:1"
       d="M 139.28572,487.36159 42.142861,485.93302"
       id="path4825"
       inkscape:connector-curvature="0" />
    <path
       style="fill:#93ac9d;fill-rule:evenodd;stroke:#000000;stroke-width:3.96887851;stroke-linecap:butt;stroke-linejoin:miter;stroke-miterlimit:4;stroke-dasharray:none;stroke-opacity:1"
       d="M 139.24617,433.8055 79.325271,432.34625"
       id="path4825-8"
       inkscape:connector-curvature="0" />
    <path
       style="fill:#93ac9d;fill-rule:evenodd;stroke:#000000;stroke-width:5;stroke-linecap:butt;stroke-linejoin:miter;stroke-miterlimit:4;stroke-dasharray:none;stroke-opacity:1"
       d="m 83.571431,431.6473 1.42857,-167.14285"
       id="path4842"
       inkscape:connector-curvature="0" />
    <path
       style="fill:#93ac9d;fill-rule:evenodd;stroke:#000000;stroke-width:5;stroke-linecap:butt;stroke-linejoin:miter;stroke-miterlimit:4;stroke-dasharray:none;stroke-opacity:1"
       d="m 39.285721,484.50445 0,-218.57143"
       id="path4844"
       inkscape:connector-curvature="0" />
    <path
       style="fill:#93ac9d;fill-rule:evenodd;stroke:#000000;stroke-width:5;stroke-linecap:butt;stroke-linejoin:miter;stroke-miterlimit:4;stroke-dasharray:none;stroke-opacity:1"
       d="m 85.000001,264.50445 -45.71428,-1.42857"
       id="path4846"
       inkscape:connector-curvature="0" />
    <path
       style="fill:#93ac9d;fill-opacity:1;stroke:#000000;stroke-width:0;stroke-miterlimit:4;stroke-dasharray:none;stroke-opacity:1"
       d="m 136.69264,460.36818 0,-24.50937 -23.92857,-0.0157 c -26.469149,-0.0174 -34.642849,-0.87234 -34.642849,-3.62357 0,-1.01028 0.59573,-2.05117 1.32386,-2.31308 0.78419,-0.28207 1.51214,-33.52531 1.78571,-81.54811 l 0.46185,-81.07193 -14.28571,-0.0152 c -7.85714,-0.008 -16.69643,-0.4137 -19.64286,-0.90072 l -5.35714,-0.88548 0,108.75835 0,108.75835 24.64286,0.004 c 13.55357,0.003 34.767849,0.4247 47.142849,0.93794 l 22.5,0.93366 0,-24.50937 z"
       id="path4848"
       inkscape:connector-curvature="0" />
    <path
       style="fill:#93ac9d;fill-opacity:1;stroke:#000000;stroke-width:0;stroke-miterlimit:4;stroke-dasharray:none;stroke-opacity:1"
       d="m 540.6751,574.30717 c -8.89307,-11.84069 -16.26035,-32.23413 -21.25948,-58.84855 -4.37805,-23.30793 -5.38916,-70.60533 -2.06732,-96.7039 4.28697,-33.68113 12.84071,-60.50463 23.65849,-74.19015 l 5.40509,-6.83795 -66.64533,-0.92929 c -36.65493,-0.5111 -110.03819,-1.2673 -163.07391,-1.68044 -53.03571,-0.41313 -101.10671,-1.08646 -106.82442,-1.49627 l -10.39586,-0.74512 5.11948,6.7069 c 6.57228,8.61015 9.43638,14.36077 14.08018,28.27061 14.97455,44.85423 16.22048,113.81997 2.95655,163.65426 -4.12658,15.50414 -11.73578,32.23441 -17.80423,39.14598 l -4.16517,4.74387 96.73103,0.95123 c 53.20206,0.52317 130.75479,1.37524 172.3394,1.89349 l 75.60837,0.94225 -3.66287,-4.87692 z"
       id="path4850"
       inkscape:connector-curvature="0" />
    <ellipse
       style="fill:#93ac9d;fill-opacity:1;stroke:#000000;stroke-width:0;stroke-miterlimit:4;stroke-dasharray:none;stroke-opacity:1"
       id="path4858"
       cx="-194.28572"
       cy="536.64728"
       rx="27.857143"
       ry="39.285713"
       transform="scale(-1,1)" />
    <ellipse
       style="fill:#93ac9d;fill-opacity:1;stroke:#000000;stroke-width:0;stroke-miterlimit:4;stroke-dasharray:none;stroke-opacity:1"
       id="path4860"
       cx="-219.28572"
       cy="440.93301"
       rx="68.571426"
       ry="89.285713"
       transform="scale(-1,1)" />
    <ellipse
       style="fill:#93ac9d;fill-opacity:1;stroke:#000000;stroke-width:0;stroke-miterlimit:4;stroke-dasharray:none;stroke-opacity:1"
       id="path4862"
       cx="-195.71431"
       cy="375.93301"
       rx="25"
       ry="41.42857"
       transform="scale(-1,1)" />
    <path
       style="fill:#93ac9d;fill-rule:evenodd;stroke:#000000;stroke-width:5;stroke-linecap:butt;stroke-linejoin:miter;stroke-miterlimit:4;stroke-dasharray:none;stroke-opacity:1"
       d="m 567.99189,440.19432 97.14286,1.42857"
       id="path4825-4"
       inkscape:connector-curvature="0" />
    <path
       style="fill:#93ac9d;fill-rule:evenodd;stroke:#000000;stroke-width:3.96887851;stroke-linecap:butt;stroke-linejoin:miter;stroke-miterlimit:4;stroke-dasharray:none;stroke-opacity:1"
       d="m 568.03144,493.75041 59.9209,1.45925"
       id="path4825-8-3"
       inkscape:connector-curvature="0" />
    <path
       style="fill:#93ac9d;fill-rule:evenodd;stroke:#000000;stroke-width:5;stroke-linecap:butt;stroke-linejoin:miter;stroke-miterlimit:4;stroke-dasharray:none;stroke-opacity:1"
       d="m 623.70618,495.90861 -1.42857,167.14285"
       id="path4842-8"
       inkscape:connector-curvature="0" />
    <path
       style="fill:#93ac9d;fill-rule:evenodd;stroke:#000000;stroke-width:5;stroke-linecap:butt;stroke-linejoin:miter;stroke-miterlimit:4;stroke-dasharray:none;stroke-opacity:1"
       d="m 667.99189,443.05146 0,218.57143"
       id="path4844-4"
       inkscape:connector-curvature="0" />
    <path
       style="fill:#93ac9d;fill-rule:evenodd;stroke:#000000;stroke-width:5;stroke-linecap:butt;stroke-linejoin:miter;stroke-miterlimit:4;stroke-dasharray:none;stroke-opacity:1"
       d="m 622.27761,663.05146 45.71428,1.42857"
       id="path4846-9"
       inkscape:connector-curvature="0" />
    <path
       style="fill:#93ac9d;fill-opacity:1;stroke:#000000;stroke-width:0;stroke-miterlimit:4;stroke-dasharray:none;stroke-opacity:1"
       d="m 570.58497,467.18773 0,24.50937 23.92857,0.0157 c 26.46915,0.0174 34.64285,0.87234 34.64285,3.62357 0,1.01028 -0.59573,2.05117 -1.32386,2.31308 -0.78419,0.28207 -1.51214,33.52531 -1.78571,81.54811 l -0.46185,81.07193 14.28571,0.0152 c 7.85714,0.008 16.69643,0.4137 19.64286,0.90072 l 5.35714,0.88548 0,-108.75835 0,-108.75835 -24.64286,-0.004 c -13.55357,-0.003 -34.76785,-0.4247 -47.14285,-0.93794 l -22.5,-0.93366 0,24.50937 z"
       id="path4848-8"
       inkscape:connector-curvature="0" />
    <path
       style="fill:#93ac9d;fill-rule:evenodd;stroke:#000000;stroke-width:5;stroke-linecap:butt;stroke-linejoin:miter;stroke-miterlimit:4;stroke-dasharray:none;stroke-opacity:1"
       d="m 292.3719,564.53481 -96.04169,14.65497"
       id="path4825-45"
       inkscape:connector-curvature="0" />
    <path
       style="fill:#93ac9d;fill-rule:evenodd;stroke:#000000;stroke-width:3.96887851;stroke-linecap:butt;stroke-linejoin:miter;stroke-miterlimit:4;stroke-dasharray:none;stroke-opacity:1"
       d="m 283.47668,511.72258 -59.33725,8.46956"
       id="path4825-8-7"
       inkscape:connector-curvature="0" />
    <path
       style="fill:#93ac9d;fill-rule:evenodd;stroke:#000000;stroke-width:5;stroke-linecap:butt;stroke-linejoin:miter;stroke-miterlimit:4;stroke-dasharray:none;stroke-opacity:1"
       d="M 228.21155,518.80065 201.98114,353.72267"
       id="path4842-2"
       inkscape:connector-curvature="0" />
    <path
       style="fill:#93ac9d;fill-rule:evenodd;stroke:#000000;stroke-width:5;stroke-linecap:butt;stroke-linejoin:miter;stroke-miterlimit:4;stroke-dasharray:none;stroke-opacity:1"
       d="M 193.27617,578.25334 157.13246,362.69105"
       id="path4844-8"
       inkscape:connector-curvature="0" />
    <path
       style="fill:#93ac9d;fill-rule:evenodd;stroke:#000000;stroke-width:5;stroke-linecap:butt;stroke-linejoin:miter;stroke-miterlimit:4;stroke-dasharray:none;stroke-opacity:1"
       d="m 201.98114,353.72267 -45.32115,6.15057"
       id="path4846-3"
       inkscape:connector-curvature="0" />
    <path
       style="fill:#93ac9d;fill-opacity:1;stroke:#000000;stroke-width:0;stroke-miterlimit:4;stroke-dasharray:none;stroke-opacity:1"
       d="m 285.3508,538.34182 -4.05295,-24.17195 -23.60174,3.94143 c -26.10762,4.35987 -34.31016,4.86833 -34.76511,2.15498 -0.16706,-0.99637 0.24834,-2.12144 0.92313,-2.50016 0.72675,-0.40786 -4.05254,-33.3138 -11.72394,-80.72069 l -12.95084,-80.03217 -14.09155,2.34735 c -7.75028,1.29139 -16.53497,2.35297 -19.52137,2.35988 l -5.42982,0.0126 17.98465,107.26104 17.98465,107.26104 24.30426,-4.07108 c 13.36747,-2.2383 34.35942,-5.33047 46.64892,-6.87067 l 22.34463,-2.79987 -4.05295,-24.17195 z"
       id="path4848-2"
       inkscape:connector-curvature="0" />
    <path
       style="fill:#93ac9d;fill-rule:evenodd;stroke:#000000;stroke-width:5;stroke-linecap:butt;stroke-linejoin:miter;stroke-miterlimit:4;stroke-dasharray:none;stroke-opacity:1"
       d="m 255.11637,342.3416 -95.56923,17.47277"
       id="path4825-83"
       inkscape:connector-curvature="0" />
    <path
       style="fill:#93ac9d;fill-rule:evenodd;stroke:#000000;stroke-width:3.96887851;stroke-linecap:butt;stroke-linejoin:miter;stroke-miterlimit:4;stroke-dasharray:none;stroke-opacity:1"
       d="m 263.93359,395.16691 -58.85465,11.34787"
       id="path4825-8-8"
       inkscape:connector-curvature="0" />
    <path
       style="fill:#93ac9d;fill-rule:evenodd;stroke:#000000;stroke-width:5;stroke-linecap:butt;stroke-linejoin:miter;stroke-miterlimit:4;stroke-dasharray:none;stroke-opacity:1"
       d="m 209.38223,406.50195 29.04821,164.60551"
       id="path4842-7"
       inkscape:connector-curvature="0" />
    <path
       style="fill:#93ac9d;fill-rule:evenodd;stroke:#000000;stroke-width:5;stroke-linecap:butt;stroke-linejoin:miter;stroke-miterlimit:4;stroke-dasharray:none;stroke-opacity:1"
       d="m 156.96557,361.69574 36.14371,215.56229"
       id="path4844-3"
       inkscape:connector-curvature="0" />
    <path
       style="fill:#93ac9d;fill-rule:evenodd;stroke:#000000;stroke-width:5;stroke-linecap:butt;stroke-linejoin:miter;stroke-miterlimit:4;stroke-dasharray:none;stroke-opacity:1"
       d="m 238.43044,571.10746 -44.84869,8.96838"
       id="path4846-4"
       inkscape:connector-curvature="0" />
    <path
       style="fill:#93ac9d;fill-opacity:1;stroke:#000000;stroke-width:0;stroke-miterlimit:4;stroke-dasharray:none;stroke-opacity:1"
       d="m 257.02272,369.39218 4.05295,24.17194 -23.59654,3.9724 c -26.10187,4.39418 -34.02167,6.58898 -33.56671,9.30234 0.16706,0.99637 0.92672,1.92442 1.68813,2.06232 0.82004,0.1485 7.03519,32.8137 15.24621,80.13012 l 13.86181,79.87941 -14.08651,2.37733 c -7.74765,1.30717 -16.39817,3.16898 -19.22349,4.13652 l -5.13696,1.75917 -17.98466,-107.26104 -17.98464,-107.26104 24.30293,-4.07898 c 13.36648,-2.24422 34.21896,-6.16818 46.33873,-8.72073 l 22.03583,-4.64147 4.05295,24.17193 z"
       id="path4848-5"
       inkscape:connector-curvature="0" />
    <rect
       style="fill:#93ac9d;fill-opacity:1;stroke:#000000;stroke-width:0;stroke-miterlimit:4;stroke-dasharray:none;stroke-opacity:1"
       id="rect5014"
       width="74.751289"
       height="42.426407"
       x="101.3353"
       y="559.638"
       transform="matrix(0.98623271,-0.16536338,0.16536338,0.98623271,0,0)" />
    <rect
       style="fill:#93ac9d;fill-opacity:1;stroke:#000000;stroke-width:0;stroke-miterlimit:4;stroke-dasharray:none;stroke-opacity:1"
       id="rect5018"
       width="63.63961"
       height="24.243662"
       x="106.38608"
       y="553.57709"
       transform="matrix(0.98623271,-0.16536338,0.16536338,0.98623271,0,0)" />
    <path
       style="fill:#93ac9d;fill-rule:evenodd;stroke:#000000;stroke-width:5;stroke-linecap:butt;stroke-linejoin:miter;stroke-miterlimit:4;stroke-dasharray:none;stroke-opacity:1"
       d="m 412.45492,569.11858 -95.588,17.3698"
       id="path4825-45-6"
       inkscape:connector-curvature="0" />
    <path
       style="fill:#93ac9d;fill-rule:evenodd;stroke:#000000;stroke-width:3.96887851;stroke-linecap:butt;stroke-linejoin:miter;stroke-miterlimit:4;stroke-dasharray:none;stroke-opacity:1"
       d="m 402.06718,516.57954 -59.07352,10.14709"
       id="path4825-8-7-0"
       inkscape:connector-curvature="0" />
    <path
       style="fill:#93ac9d;fill-rule:evenodd;stroke:#000000;stroke-width:5;stroke-linecap:butt;stroke-linejoin:miter;stroke-miterlimit:4;stroke-dasharray:none;stroke-opacity:1"
       d="M 347.02473,525.22035 316.12846,360.95169"
       id="path4842-2-7"
       inkscape:connector-curvature="0" />
    <path
       style="fill:#93ac9d;fill-rule:evenodd;stroke:#000000;stroke-width:5;stroke-linecap:butt;stroke-linejoin:miter;stroke-miterlimit:4;stroke-dasharray:none;stroke-opacity:1"
       d="M 313.78758,585.63884 271.55183,371.18695"
       id="path4844-8-5"
       inkscape:connector-curvature="0" />
    <path
       style="fill:#93ac9d;fill-rule:evenodd;stroke:#000000;stroke-width:5;stroke-linecap:butt;stroke-linejoin:miter;stroke-miterlimit:4;stroke-dasharray:none;stroke-opacity:1"
       d="m 316.12846,360.95169 -45.12873,7.43197"
       id="path4846-3-1"
       inkscape:connector-curvature="0" />
    <path
       style="fill:#93ac9d;fill-opacity:1;stroke:#000000;stroke-width:0;stroke-miterlimit:4;stroke-dasharray:none;stroke-opacity:1"
       d="m 404.69463,543.13501 -4.73608,-24.04743 -23.48061,4.60844 c -25.97363,5.09771 -34.15848,5.83833 -34.69012,3.13896 -0.19522,-0.99124 0.18815,-2.12763 0.85194,-2.5253 0.71491,-0.42829 -4.99464,-33.18564 -14.00593,-80.35619 l -15.21282,-79.63317 -14.0194,2.74559 c -7.7106,1.51043 -16.46168,2.82044 -19.44669,2.91196 l -5.42728,0.1664 21.01597,106.70851 21.01597,106.70852 24.17917,-4.75795 c 13.2987,-2.61608 34.19463,-6.30168 46.43557,-8.1894 l 22.25634,-3.43174 -4.73608,-24.04743 z"
       id="path4848-2-8"
       inkscape:connector-curvature="0" />
    <path
       style="fill:#93ac9d;fill-rule:evenodd;stroke:#000000;stroke-width:5;stroke-linecap:butt;stroke-linejoin:miter;stroke-miterlimit:4;stroke-dasharray:none;stroke-opacity:1"
       d="m 368.91996,348.06994 -95.0359,20.17309"
       id="path4825-83-6"
       inkscape:connector-curvature="0" />
    <path
       style="fill:#93ac9d;fill-rule:evenodd;stroke:#000000;stroke-width:3.96887851;stroke-linecap:butt;stroke-linejoin:miter;stroke-miterlimit:4;stroke-dasharray:none;stroke-opacity:1"
       d="m 379.23009,400.62427 -58.50956,13.01059"
       id="path4825-8-8-5"
       inkscape:connector-curvature="0" />
    <path
       style="fill:#93ac9d;fill-rule:evenodd;stroke:#000000;stroke-width:5;stroke-linecap:butt;stroke-linejoin:miter;stroke-miterlimit:4;stroke-dasharray:none;stroke-opacity:1"
       d="m 325.02172,413.50012 33.69957,163.71656"
       id="path4842-7-6"
       inkscape:connector-curvature="0" />
    <path
       style="fill:#93ac9d;fill-rule:evenodd;stroke:#000000;stroke-width:5;stroke-linecap:butt;stroke-linejoin:miter;stroke-miterlimit:4;stroke-dasharray:none;stroke-opacity:1"
       d="m 271.35682,370.19677 42.23574,214.45189"
       id="path4844-3-5"
       inkscape:connector-curvature="0" />
    <path
       style="fill:#93ac9d;fill-rule:evenodd;stroke:#000000;stroke-width:5;stroke-linecap:butt;stroke-linejoin:miter;stroke-miterlimit:4;stroke-dasharray:none;stroke-opacity:1"
       d="m 358.72129,577.21668 -44.57663,10.23527"
       id="path4846-4-8"
       inkscape:connector-curvature="0" />
    <path
       style="fill:#93ac9d;fill-opacity:1;stroke:#000000;stroke-width:0;stroke-miterlimit:4;stroke-dasharray:none;stroke-opacity:1"
       d="m 371.59183,375.05566 4.73608,24.04743 -23.47454,4.63925 c -25.96691,5.13185 -33.82135,7.55013 -33.28971,10.2495 0.19522,0.99124 0.98086,1.8974 1.74588,2.01367 0.82391,0.12522 7.96191,32.60124 17.51003,79.66606 l 16.11912,79.45468 -14.01352,2.77542 c -7.70751,1.52612 -16.3018,3.63224 -19.09859,4.67944 l -5.08507,1.90398 -21.01596,-106.70852 -21.01597,-106.70852 24.17763,-4.7658 c 13.29754,-2.62197 34.03049,-7.13507 46.07308,-10.02993 l 21.89551,-5.26386 4.73608,24.04743 z"
       id="path4848-5-8"
       inkscape:connector-curvature="0" />
    <rect
       style="fill:#93ac9d;fill-opacity:1;stroke:#000000;stroke-width:0;stroke-miterlimit:4;stroke-dasharray:none;stroke-opacity:1"
       id="rect5014-8"
       width="74.751289"
       height="42.426407"
       x="201.04921"
       y="592.62067"
       transform="matrix(0.98115242,-0.19323544,0.19323544,0.98115242,0,0)" />
    <rect
       style="fill:#93ac9d;fill-opacity:1;stroke:#000000;stroke-width:0;stroke-miterlimit:4;stroke-dasharray:none;stroke-opacity:1"
       id="rect5018-4"
       width="63.63961"
       height="24.243662"
       x="206.09999"
       y="586.55975"
       transform="matrix(0.98115242,-0.19323544,0.19323544,0.98115242,0,0)" />
    <path
       style="fill:#93ac9d;fill-rule:evenodd;stroke:#000000;stroke-width:5;stroke-linecap:butt;stroke-linejoin:miter;stroke-miterlimit:4;stroke-dasharray:none;stroke-opacity:1"
       d="M 524.40486,570.53723 428.9644,588.70024"
       id="path4825-45-7"
       inkscape:connector-curvature="0" />
    <path
       style="fill:#93ac9d;fill-rule:evenodd;stroke:#000000;stroke-width:3.96887851;stroke-linecap:butt;stroke-linejoin:miter;stroke-miterlimit:4;stroke-dasharray:none;stroke-opacity:1"
       d="m 513.58116,518.08626 -58.98721,10.63732"
       id="path4825-8-7-1"
       inkscape:connector-curvature="0" />
    <path
       style="fill:#93ac9d;fill-rule:evenodd;stroke:#000000;stroke-width:5;stroke-linecap:butt;stroke-linejoin:miter;stroke-miterlimit:4;stroke-dasharray:none;stroke-opacity:1"
       d="M 458.61237,527.18387 426.35298,363.17746"
       id="path4842-2-8"
       inkscape:connector-curvature="0" />
    <path
       style="fill:#93ac9d;fill-rule:evenodd;stroke:#000000;stroke-width:5;stroke-linecap:butt;stroke-linejoin:miter;stroke-miterlimit:4;stroke-dasharray:none;stroke-opacity:1"
       d="M 425.87811,587.8763 381.86289,373.78256"
       id="path4844-8-1"
       inkscape:connector-curvature="0" />
    <path
       style="fill:#93ac9d;fill-rule:evenodd;stroke:#000000;stroke-width:5;stroke-linecap:butt;stroke-linejoin:miter;stroke-miterlimit:4;stroke-dasharray:none;stroke-opacity:1"
       d="m 426.35298,363.17746 -45.06545,7.80649"
       id="path4846-3-4"
       inkscape:connector-curvature="0" />
    <path
       style="fill:#93ac9d;fill-opacity:1;stroke:#000000;stroke-width:0;stroke-miterlimit:4;stroke-dasharray:none;stroke-opacity:1"
       d="m 516.42905,544.61899 -4.93561,-24.00726 -23.44153,4.80328 c -25.9304,5.31323 -34.10882,6.1218 -34.66286,3.42693 -0.20344,-0.98959 0.17047,-2.12912 0.83094,-2.53229 0.71132,-0.43421 -5.27006,-33.14302 -14.67277,-80.23711 l -15.87362,-79.50408 -13.99611,2.86192 c -7.69779,1.57441 -16.4377,2.95705 -19.42184,3.07335 l -5.42571,0.21147 21.90141,106.53031 21.90142,106.53031 24.13883,-4.95859 c 13.27651,-2.72643 34.14111,-6.58544 46.36595,-8.57475 l 22.22708,-3.61645 -4.93562,-24.00726 z"
       id="path4848-2-4"
       inkscape:connector-curvature="0" />
    <path
       style="fill:#93ac9d;fill-rule:evenodd;stroke:#000000;stroke-width:5;stroke-linecap:butt;stroke-linejoin:miter;stroke-miterlimit:4;stroke-dasharray:none;stroke-opacity:1"
       d="m 479.03568,349.85773 -94.86509,20.96163"
       id="path4825-83-3"
       inkscape:connector-curvature="0" />
    <path
       style="fill:#93ac9d;fill-rule:evenodd;stroke:#000000;stroke-width:3.96887851;stroke-linecap:butt;stroke-linejoin:miter;stroke-miterlimit:4;stroke-dasharray:none;stroke-opacity:1"
       d="m 489.7819,402.32463 -58.39949,13.49603"
       id="path4825-8-8-2"
       inkscape:connector-curvature="0" />
    <path
       style="fill:#93ac9d;fill-rule:evenodd;stroke:#000000;stroke-width:5;stroke-linecap:butt;stroke-linejoin:miter;stroke-miterlimit:4;stroke-dasharray:none;stroke-opacity:1"
       d="m 435.68233,415.65022 35.05801,163.43106"
       id="path4842-7-2"
       inkscape:connector-curvature="0" />
    <path
       style="fill:#93ac9d;fill-rule:evenodd;stroke:#000000;stroke-width:5;stroke-linecap:butt;stroke-linejoin:miter;stroke-miterlimit:4;stroke-dasharray:none;stroke-opacity:1"
       d="m 381.65966,372.79402 44.01522,214.09376"
       id="path4844-3-50"
       inkscape:connector-curvature="0" />
    <path
       style="fill:#93ac9d;fill-rule:evenodd;stroke:#000000;stroke-width:5;stroke-linecap:butt;stroke-linejoin:miter;stroke-miterlimit:4;stroke-dasharray:none;stroke-opacity:1"
       d="m 470.74034,579.08128 -44.49009,10.6051"
       id="path4846-4-7"
       inkscape:connector-curvature="0" />
    <path
       style="fill:#93ac9d;fill-opacity:1;stroke:#000000;stroke-width:0;stroke-miterlimit:4;stroke-dasharray:none;stroke-opacity:1"
       d="m 481.93157,376.82034 4.93562,24.00726 -23.4352,4.83404 c -25.9234,5.34732 -33.75748,7.83074 -33.20345,10.52561 0.20345,0.98958 0.99658,1.88918 1.76254,1.9991 0.82493,0.11837 8.23238,32.53399 18.17103,79.51791 l 16.7784,79.31807 -13.98999,2.8917 c -7.69457,1.59008 -16.27108,3.7675 -19.05907,4.83788 l -5.06908,1.94615 -21.90141,-106.53031 -21.90142,-106.53032 24.13722,-4.96642 c 13.27531,-2.73231 33.97007,-7.41744 45.98819,-10.4122 l 21.85105,-5.44551 4.93562,24.00726 z"
       id="path4848-5-7"
       inkscape:connector-curvature="0" />
    <rect
       style="fill:#93ac9d;fill-opacity:1;stroke:#000000;stroke-width:0;stroke-miterlimit:4;stroke-dasharray:none;stroke-opacity:1"
       id="rect5014-80"
       width="74.751289"
       height="42.426407"
       x="305.11078"
       y="618.9798"
       transform="matrix(0.97951384,-0.20137683,0.20137683,0.97951384,0,0)" />
    <rect
       style="fill:#93ac9d;fill-opacity:1;stroke:#000000;stroke-width:0;stroke-miterlimit:4;stroke-dasharray:none;stroke-opacity:1"
       id="rect5018-9"
       width="63.63961"
       height="24.243662"
       x="310.16156"
       y="612.91888"
       transform="matrix(0.97951384,-0.20137683,0.20137683,0.97951384,0,0)" />
  </g>
</svg>
